<svg width="30" height="29" viewBox="0 0 30 29" fill="none" xmlns="http://www.w3.org/2000/svg">
<path d="M3.33333 0C1.495 0 0 1.40741 0 3.13805V25.1044C0 26.835 1.495 28.2424 3.33333 28.2424H14.3685H19.0234H26.6667C28.505 28.2424 30 26.835 30 25.1044V3.13805C30 1.40741 28.505 0 26.6667 0H3.33333ZM3.33333 3.13805H26.6667L26.6699 25.1044H19.0234V18.8834H22.9655L23.5514 14.6085H19.0495V11.8841C19.0495 10.6477 19.4155 9.81253 21.2988 9.81253H23.6784V5.99723C22.52 5.88583 21.357 5.83166 20.192 5.8348C16.7354 5.8348 14.3685 7.82093 14.3685 11.4673V14.6146H10.4622V18.8896H14.3685V25.1044H3.33333V3.13805Z" fill="white"/>
</svg>
