<svg width="30" height="29" viewBox="0 0 30 29" fill="none" xmlns="http://www.w3.org/2000/svg">
<path d="M8.82102 0C3.97905 0 0 3.74091 0 8.30423V19.9382C0 24.4965 3.97372 28.2424 8.82102 28.2424H21.179C26.021 28.2424 30 24.5015 30 19.9382V8.30423C30 3.74593 26.0263 0 21.179 0H8.82102ZM8.82102 2.56749H21.179C24.5508 2.56749 27.2727 5.12996 27.2727 8.30423V19.9382C27.2727 23.1124 24.5508 25.6749 21.179 25.6749H8.82102C5.44921 25.6749 2.72727 23.1124 2.72727 19.9382V8.30423C2.72727 5.12996 5.44921 2.56749 8.82102 2.56749ZM23.054 5.37568C22.3668 5.37568 21.8182 5.89219 21.8182 6.53908C21.8182 7.18597 22.3668 7.70247 23.054 7.70247C23.7411 7.70247 24.2898 7.18597 24.2898 6.53908C24.2898 5.89219 23.7411 5.37568 23.054 5.37568ZM15 6.41873C10.4989 6.41873 6.81818 9.88384 6.81818 14.1212C6.81818 18.3586 10.4989 21.8237 15 21.8237C19.5011 21.8237 23.1818 18.3586 23.1818 14.1212C23.1818 9.88384 19.5011 6.41873 15 6.41873ZM15 8.98622C18.0309 8.98622 20.4545 11.2679 20.4545 14.1212C20.4545 16.9745 18.0309 19.2562 15 19.2562C11.9691 19.2562 9.54545 16.9745 9.54545 14.1212C9.54545 11.2679 11.9691 8.98622 15 8.98622Z" fill="white"/>
</svg>
