<svg width="30" height="30" viewBox="0 0 30 30" fill="none" xmlns="http://www.w3.org/2000/svg">
<path fill-rule="evenodd" clip-rule="evenodd" d="M25.6299 4.36002C22.8076 1.55056 19.0576 0 15.0635 0C6.83105 0 0.12695 6.66883 0.12695 14.8639C0.122063 17.4838 0.81055 20.0405 2.11914 22.2959L0 30L7.91992 27.9294C10.0977 29.1154 12.5586 29.7375 15.0586 29.7424H15.0635C23.2959 29.7424 29.9951 23.0736 30 14.8736C30 10.9025 28.4472 7.16948 25.6299 4.36002ZM15.0635 27.2294H15.0586C12.832 27.2294 10.6445 26.6316 8.74021 25.5087L8.28611 25.2414L3.58396 26.4663L4.83885 21.907L4.54589 21.4404C3.30077 19.4718 2.64647 17.197 2.64647 14.8639C2.64647 8.05412 8.21776 2.51297 15.0683 2.51297C18.3838 2.51297 21.499 3.80105 23.8428 6.13417C26.1865 8.47215 27.4756 11.5732 27.4756 14.8736C27.4756 21.6883 21.9043 27.2294 15.0635 27.2294ZM21.8701 17.9747C21.499 17.79 19.6631 16.8908 19.3213 16.7693C18.9795 16.6429 18.7304 16.5846 18.4814 16.954C18.2324 17.3283 17.5195 18.1643 17.2998 18.4122C17.085 18.6552 16.8652 18.6892 16.4941 18.5045C16.1182 18.3198 14.917 17.9261 13.4912 16.6575C12.3828 15.6756 11.6309 14.4556 11.416 14.0862C11.1963 13.7119 11.3916 13.5126 11.5771 13.3279C11.748 13.1627 11.9531 12.8953 12.1387 12.6766C12.3242 12.4628 12.3877 12.3072 12.5146 12.0593C12.6367 11.8114 12.5732 11.5927 12.4805 11.408C12.3877 11.2233 11.6406 9.39081 11.3281 8.64713C11.0254 7.92289 10.7178 8.02496 10.4883 8.01038C10.2735 8.00066 10.0244 8.00066 9.77541 8.00066C9.52638 8.00066 9.12111 8.09302 8.77932 8.46729C8.43752 8.8367 7.47561 9.73592 7.47561 11.5635C7.47561 13.3911 8.8135 15.1604 8.99905 15.4083C9.1846 15.6513 11.6309 19.4038 15.376 21.0126C16.2647 21.3966 16.958 21.6251 17.5 21.7952C18.3936 22.0771 19.209 22.0382 19.8535 21.9459C20.5713 21.839 22.0606 21.0467 22.3731 20.1766C22.6807 19.3114 22.6807 18.5677 22.5879 18.4122C22.4951 18.2567 22.2461 18.1643 21.8701 17.9747Z" fill="white"/>
</svg>
